<svg width="537" height="558" viewBox="0 0 537 558" fill="none" xmlns="http://www.w3.org/2000/svg">
<rect width="536" height="89" transform="translate(1)" fill="white"/>
<path d="M1 6.5L5.49775 51.3678L25.9966 56.5L46.4137 51.3678L51 6.5H1ZM41.5479 17.143L41.2208 19.9796L41.1049 21.1514H17.1578L17.7166 26.8125H40.5529L40.3281 28.2728L38.8833 42.8281L38.7675 43.8017L26.0239 46.9026V46.9207H25.9421L25.9216 46.9267V46.9207H25.9148L13.0622 43.7957L12.2853 35.1058H18.4935L18.9365 39.5048L25.9148 41.1695H25.9421L32.8931 39.5108L33.67 32.3834H25.9216V32.3774H11.9582L10.4044 17.143L10.2885 15.6827H41.6569L41.5479 17.143Z" fill="#6C63FF"/>
<path d="M92.2812 39.5H89.3281V31.918H81.6992V39.5H78.7344V22.4375H81.6992V29.5391H89.3281V22.4375H92.2812V39.5ZM107.773 24.8281H102.453V39.5H99.5117V24.8281H94.2383V22.4375H107.773V24.8281ZM113.867 22.4375L118.789 35.5156L123.699 22.4375H127.531V39.5H124.578V33.875L124.871 26.3516L119.832 39.5H117.711L112.684 26.3633L112.977 33.875V39.5H110.023V22.4375H113.867ZM134.012 37.1328H141.758V39.5H131.047V22.4375H134.012V37.1328ZM144.336 31.0391L145.262 22.4375H154.426V24.8984H147.629L147.16 28.9766C147.949 28.5234 148.84 28.2969 149.832 28.2969C151.457 28.2969 152.719 28.8164 153.617 29.8555C154.523 30.8945 154.977 32.293 154.977 34.0508C154.977 35.7852 154.477 37.168 153.477 38.1992C152.477 39.2227 151.105 39.7344 149.363 39.7344C147.801 39.7344 146.504 39.293 145.473 38.4102C144.449 37.5195 143.895 36.3477 143.809 34.8945H146.562C146.672 35.7227 146.969 36.3594 147.453 36.8047C147.938 37.2422 148.57 37.4609 149.352 37.4609C150.227 37.4609 150.906 37.1484 151.391 36.5234C151.883 35.8984 152.129 35.0469 152.129 33.9688C152.129 32.9297 151.859 32.1094 151.32 31.5078C150.781 30.8984 150.039 30.5938 149.094 30.5938C148.578 30.5938 148.141 30.6641 147.781 30.8047C147.422 30.9375 147.031 31.2031 146.609 31.6016L144.336 31.0391Z" fill="#6C63FF"/>
<path d="M501.352 32.3633C500.398 33.3711 499.285 33.875 498.012 33.875C496.512 33.875 495.316 33.3516 494.426 32.3047C493.535 31.25 493.09 29.8672 493.09 28.1562C493.09 27.0312 493.316 26.0117 493.77 25.0977C494.223 24.1836 494.867 23.4727 495.703 22.9648C496.539 22.457 497.508 22.2031 498.609 22.2031C500.328 22.2031 501.691 22.8438 502.699 24.125C503.707 25.4062 504.211 27.1211 504.211 29.2695V30.0664C504.211 33.1445 503.516 35.4922 502.125 37.1094C500.734 38.7266 498.66 39.5469 495.902 39.5703H495.562V37.2148H495.973C497.652 37.1914 498.941 36.7891 499.84 36.0078C500.738 35.2188 501.242 34.0039 501.352 32.3633ZM498.609 31.6484C499.18 31.6484 499.715 31.4844 500.215 31.1562C500.715 30.8281 501.102 30.375 501.375 29.7969V28.6836C501.375 27.4258 501.117 26.4141 500.602 25.6484C500.086 24.8828 499.418 24.5 498.598 24.5C497.777 24.5 497.121 24.8398 496.629 25.5195C496.145 26.1914 495.902 27.043 495.902 28.0742C495.902 29.1445 496.148 30.0078 496.641 30.6641C497.133 31.3203 497.789 31.6484 498.609 31.6484ZM518.039 32.3164C518.039 34.7695 517.578 36.6211 516.656 37.8711C515.742 39.1133 514.348 39.7344 512.473 39.7344C510.629 39.7344 509.238 39.1289 508.301 37.918C507.371 36.6992 506.895 34.8984 506.871 32.5156V29.5625C506.871 27.1094 507.328 25.2695 508.242 24.043C509.164 22.8164 510.566 22.2031 512.449 22.2031C514.316 22.2031 515.707 22.8008 516.621 23.9961C517.543 25.1914 518.016 26.9805 518.039 29.3633V32.3164ZM515.191 29.1289C515.191 27.5273 514.973 26.3555 514.535 25.6133C514.098 24.8633 513.402 24.4883 512.449 24.4883C511.52 24.4883 510.836 24.8438 510.398 25.5547C509.961 26.2578 509.73 27.3594 509.707 28.8594V32.7266C509.707 34.3203 509.93 35.5078 510.375 36.2891C510.82 37.0703 511.52 37.4609 512.473 37.4609C513.387 37.4609 514.062 37.1016 514.5 36.3828C514.938 35.6562 515.168 34.5234 515.191 32.9844V29.1289ZM520.441 25.7188C520.441 24.6875 520.773 23.8438 521.438 23.1875C522.102 22.5234 522.973 22.1914 524.051 22.1914C525.145 22.1914 526.02 22.5234 526.676 23.1875C527.34 23.8438 527.672 24.707 527.672 25.7773V26.6211C527.672 27.6445 527.34 28.4844 526.676 29.1406C526.02 29.7969 525.152 30.125 524.074 30.125C523.02 30.125 522.148 29.8047 521.461 29.1641C520.781 28.5156 520.441 27.6445 520.441 26.5508V25.7188ZM522.434 26.6211C522.434 27.1602 522.582 27.5977 522.879 27.9336C523.184 28.2617 523.582 28.4258 524.074 28.4258C524.559 28.4258 524.949 28.2617 525.246 27.9336C525.543 27.5977 525.691 27.1445 525.691 26.5742V25.7188C525.691 25.1797 525.539 24.7422 525.234 24.4062C524.938 24.0703 524.543 23.9023 524.051 23.9023C523.559 23.9023 523.164 24.0742 522.867 24.418C522.578 24.7539 522.434 25.1992 522.434 25.7539V26.6211ZM528.645 35.3164C528.645 34.2695 528.984 33.4219 529.664 32.7734C530.344 32.125 531.211 31.8008 532.266 31.8008C533.328 31.8008 534.195 32.125 534.867 32.7734C535.547 33.4219 535.887 34.2969 535.887 35.3984V36.2305C535.887 37.2461 535.559 38.0859 534.902 38.75C534.254 39.4062 533.383 39.7344 532.289 39.7344C531.195 39.7344 530.312 39.4102 529.641 38.7617C528.977 38.1055 528.645 37.2422 528.645 36.1719V35.3164ZM530.637 36.2305C530.637 36.7617 530.789 37.1992 531.094 37.543C531.406 37.8789 531.805 38.0469 532.289 38.0469C532.789 38.0469 533.18 37.8867 533.461 37.5664C533.75 37.2383 533.895 36.7812 533.895 36.1953V35.3164C533.895 34.7695 533.742 34.332 533.438 34.0039C533.133 33.6758 532.742 33.5117 532.266 33.5117C531.781 33.5117 531.387 33.6758 531.082 34.0039C530.785 34.332 530.637 34.7852 530.637 35.3633V36.2305ZM524.66 38.2227L523.195 37.3789L531.527 24.043L532.992 24.8867L524.66 38.2227Z" fill="#6C63FF"/>
<line x1="1" y1="84" x2="471" y2="84" stroke="#6C63FF" stroke-width="10"/>
<path d="M1 163.5L5.54427 207.674L26 213.5L46.4557 207.674L51 163.5H1ZM41.7682 172.429L41.1432 177.708L26.1302 183.21L26.0911 183.221H40.6094L38.9427 199.583L26.1562 202.786L13.2917 199.527L12.4583 191.279H18.8255L19.2422 195.554L26.0911 197.038L33.2135 195.319L33.6953 188.444L12.0417 188.388V188.377L12.0156 188.388L11.5469 183.221L26.1432 178.009L26.9896 177.708H10.987L10.2318 172.429H41.7682Z" fill="#6C63FF"/>
<path d="M86.7539 190.945C86.582 192.766 85.9102 194.188 84.7383 195.211C83.5664 196.227 82.0078 196.734 80.0625 196.734C78.7031 196.734 77.5039 196.414 76.4648 195.773C75.4336 195.125 74.6367 194.207 74.0742 193.02C73.5117 191.832 73.2188 190.453 73.1953 188.883V187.289C73.1953 185.68 73.4805 184.262 74.0508 183.035C74.6211 181.809 75.4375 180.863 76.5 180.199C77.5703 179.535 78.8047 179.203 80.2031 179.203C82.0859 179.203 83.6016 179.715 84.75 180.738C85.8984 181.762 86.5664 183.207 86.7539 185.074H83.8008C83.6602 183.848 83.3008 182.965 82.7227 182.426C82.1523 181.879 81.3125 181.605 80.2031 181.605C78.9141 181.605 77.9219 182.078 77.2266 183.023C76.5391 183.961 76.1875 185.34 76.1719 187.16V188.672C76.1719 190.516 76.5 191.922 77.1562 192.891C77.8203 193.859 78.7891 194.344 80.0625 194.344C81.2266 194.344 82.1016 194.082 82.6875 193.559C83.2734 193.035 83.6445 192.164 83.8008 190.945H86.7539ZM98.332 192.105C98.332 191.355 98.0664 190.777 97.5352 190.371C97.0117 189.965 96.0625 189.555 94.6875 189.141C93.3125 188.727 92.2188 188.266 91.4062 187.758C89.8516 186.781 89.0742 185.508 89.0742 183.938C89.0742 182.562 89.6328 181.43 90.75 180.539C91.875 179.648 93.332 179.203 95.1211 179.203C96.3086 179.203 97.3672 179.422 98.2969 179.859C99.2266 180.297 99.957 180.922 100.488 181.734C101.02 182.539 101.285 183.434 101.285 184.418H98.332C98.332 183.527 98.0508 182.832 97.4883 182.332C96.9336 181.824 96.1367 181.57 95.0977 181.57C94.1289 181.57 93.375 181.777 92.8359 182.191C92.3047 182.605 92.0391 183.184 92.0391 183.926C92.0391 184.551 92.3281 185.074 92.9062 185.496C93.4844 185.91 94.4375 186.316 95.7656 186.715C97.0938 187.105 98.1602 187.555 98.9648 188.062C99.7695 188.562 100.359 189.141 100.734 189.797C101.109 190.445 101.297 191.207 101.297 192.082C101.297 193.504 100.75 194.637 99.6562 195.48C98.5703 196.316 97.0938 196.734 95.2266 196.734C93.9922 196.734 92.8555 196.508 91.8164 196.055C90.7852 195.594 89.9805 194.961 89.4023 194.156C88.832 193.352 88.5469 192.414 88.5469 191.344H91.5117C91.5117 192.312 91.832 193.062 92.4727 193.594C93.1133 194.125 94.0312 194.391 95.2266 194.391C96.2578 194.391 97.0312 194.184 97.5469 193.77C98.0703 193.348 98.332 192.793 98.332 192.105ZM112.816 192.105C112.816 191.355 112.551 190.777 112.02 190.371C111.496 189.965 110.547 189.555 109.172 189.141C107.797 188.727 106.703 188.266 105.891 187.758C104.336 186.781 103.559 185.508 103.559 183.938C103.559 182.562 104.117 181.43 105.234 180.539C106.359 179.648 107.816 179.203 109.605 179.203C110.793 179.203 111.852 179.422 112.781 179.859C113.711 180.297 114.441 180.922 114.973 181.734C115.504 182.539 115.77 183.434 115.77 184.418H112.816C112.816 183.527 112.535 182.832 111.973 182.332C111.418 181.824 110.621 181.57 109.582 181.57C108.613 181.57 107.859 181.777 107.32 182.191C106.789 182.605 106.523 183.184 106.523 183.926C106.523 184.551 106.812 185.074 107.391 185.496C107.969 185.91 108.922 186.316 110.25 186.715C111.578 187.105 112.645 187.555 113.449 188.062C114.254 188.562 114.844 189.141 115.219 189.797C115.594 190.445 115.781 191.207 115.781 192.082C115.781 193.504 115.234 194.637 114.141 195.48C113.055 196.316 111.578 196.734 109.711 196.734C108.477 196.734 107.34 196.508 106.301 196.055C105.27 195.594 104.465 194.961 103.887 194.156C103.316 193.352 103.031 192.414 103.031 191.344H105.996C105.996 192.312 106.316 193.062 106.957 193.594C107.598 194.125 108.516 194.391 109.711 194.391C110.742 194.391 111.516 194.184 112.031 193.77C112.555 193.348 112.816 192.793 112.816 192.105ZM121.219 186.668H122.953C123.828 186.66 124.52 186.434 125.027 185.988C125.543 185.543 125.801 184.898 125.801 184.055C125.801 183.242 125.586 182.613 125.156 182.168C124.734 181.715 124.086 181.488 123.211 181.488C122.445 181.488 121.816 181.711 121.324 182.156C120.832 182.594 120.586 183.168 120.586 183.879H117.738C117.738 183.004 117.969 182.207 118.43 181.488C118.898 180.77 119.547 180.211 120.375 179.812C121.211 179.406 122.145 179.203 123.176 179.203C124.879 179.203 126.215 179.633 127.184 180.492C128.16 181.344 128.648 182.531 128.648 184.055C128.648 184.82 128.402 185.543 127.91 186.223C127.426 186.895 126.797 187.402 126.023 187.746C126.961 188.066 127.672 188.57 128.156 189.258C128.648 189.945 128.895 190.766 128.895 191.719C128.895 193.25 128.367 194.469 127.312 195.375C126.266 196.281 124.887 196.734 123.176 196.734C121.535 196.734 120.191 196.297 119.145 195.422C118.098 194.547 117.574 193.383 117.574 191.93H120.422C120.422 192.68 120.672 193.289 121.172 193.758C121.68 194.227 122.359 194.461 123.211 194.461C124.094 194.461 124.789 194.227 125.297 193.758C125.805 193.289 126.059 192.609 126.059 191.719C126.059 190.82 125.793 190.129 125.262 189.645C124.73 189.16 123.941 188.918 122.895 188.918H121.219V186.668Z" fill="#6C63FF"/>
<path d="M504.023 183.938C504.023 184.773 503.809 185.52 503.379 186.176C502.949 186.824 502.363 187.336 501.621 187.711C502.512 188.125 503.195 188.691 503.672 189.41C504.156 190.129 504.398 190.941 504.398 191.848C504.398 193.348 503.891 194.539 502.875 195.422C501.859 196.297 500.508 196.734 498.82 196.734C497.125 196.734 495.766 196.293 494.742 195.41C493.727 194.527 493.219 193.34 493.219 191.848C493.219 190.934 493.461 190.113 493.945 189.387C494.43 188.66 495.109 188.102 495.984 187.711C495.25 187.336 494.668 186.824 494.238 186.176C493.816 185.52 493.605 184.773 493.605 183.938C493.605 182.484 494.074 181.332 495.012 180.48C495.949 179.629 497.215 179.203 498.809 179.203C500.41 179.203 501.68 179.629 502.617 180.48C503.555 181.332 504.023 182.484 504.023 183.938ZM501.551 191.707C501.551 190.863 501.297 190.184 500.789 189.668C500.289 189.145 499.625 188.883 498.797 188.883C497.969 188.883 497.305 189.141 496.805 189.656C496.312 190.172 496.066 190.855 496.066 191.707C496.066 192.543 496.309 193.211 496.793 193.711C497.285 194.211 497.961 194.461 498.82 194.461C499.68 194.461 500.348 194.219 500.824 193.734C501.309 193.25 501.551 192.574 501.551 191.707ZM501.188 184.043C501.188 183.301 500.973 182.691 500.543 182.215C500.113 181.73 499.535 181.488 498.809 181.488C498.082 181.488 497.508 181.719 497.086 182.18C496.664 182.633 496.453 183.254 496.453 184.043C496.453 184.824 496.664 185.445 497.086 185.906C497.516 186.367 498.094 186.598 498.82 186.598C499.547 186.598 500.121 186.367 500.543 185.906C500.973 185.445 501.188 184.824 501.188 184.043ZM518.039 189.316C518.039 191.77 517.578 193.621 516.656 194.871C515.742 196.113 514.348 196.734 512.473 196.734C510.629 196.734 509.238 196.129 508.301 194.918C507.371 193.699 506.895 191.898 506.871 189.516V186.562C506.871 184.109 507.328 182.27 508.242 181.043C509.164 179.816 510.566 179.203 512.449 179.203C514.316 179.203 515.707 179.801 516.621 180.996C517.543 182.191 518.016 183.98 518.039 186.363V189.316ZM515.191 186.129C515.191 184.527 514.973 183.355 514.535 182.613C514.098 181.863 513.402 181.488 512.449 181.488C511.52 181.488 510.836 181.844 510.398 182.555C509.961 183.258 509.73 184.359 509.707 185.859V189.727C509.707 191.32 509.93 192.508 510.375 193.289C510.82 194.07 511.52 194.461 512.473 194.461C513.387 194.461 514.062 194.102 514.5 193.383C514.938 192.656 515.168 191.523 515.191 189.984V186.129ZM520.441 182.719C520.441 181.688 520.773 180.844 521.438 180.188C522.102 179.523 522.973 179.191 524.051 179.191C525.145 179.191 526.02 179.523 526.676 180.188C527.34 180.844 527.672 181.707 527.672 182.777V183.621C527.672 184.645 527.34 185.484 526.676 186.141C526.02 186.797 525.152 187.125 524.074 187.125C523.02 187.125 522.148 186.805 521.461 186.164C520.781 185.516 520.441 184.645 520.441 183.551V182.719ZM522.434 183.621C522.434 184.16 522.582 184.598 522.879 184.934C523.184 185.262 523.582 185.426 524.074 185.426C524.559 185.426 524.949 185.262 525.246 184.934C525.543 184.598 525.691 184.145 525.691 183.574V182.719C525.691 182.18 525.539 181.742 525.234 181.406C524.938 181.07 524.543 180.902 524.051 180.902C523.559 180.902 523.164 181.074 522.867 181.418C522.578 181.754 522.434 182.199 522.434 182.754V183.621ZM528.645 192.316C528.645 191.27 528.984 190.422 529.664 189.773C530.344 189.125 531.211 188.801 532.266 188.801C533.328 188.801 534.195 189.125 534.867 189.773C535.547 190.422 535.887 191.297 535.887 192.398V193.23C535.887 194.246 535.559 195.086 534.902 195.75C534.254 196.406 533.383 196.734 532.289 196.734C531.195 196.734 530.312 196.41 529.641 195.762C528.977 195.105 528.645 194.242 528.645 193.172V192.316ZM530.637 193.23C530.637 193.762 530.789 194.199 531.094 194.543C531.406 194.879 531.805 195.047 532.289 195.047C532.789 195.047 533.18 194.887 533.461 194.566C533.75 194.238 533.895 193.781 533.895 193.195V192.316C533.895 191.77 533.742 191.332 533.438 191.004C533.133 190.676 532.742 190.512 532.266 190.512C531.781 190.512 531.387 190.676 531.082 191.004C530.785 191.332 530.637 191.785 530.637 192.363V193.23ZM524.66 195.223L523.195 194.379L531.527 181.043L532.992 181.887L524.66 195.223Z" fill="#6C63FF"/>
<line x1="1" y1="240" x2="431" y2="240" stroke="#6C63FF" stroke-width="10"/>
<path d="M1 319.5V369.5H51V319.5H1ZM28.2107 358.495C28.2107 363.361 25.3536 365.582 21.1911 365.582C17.4304 365.582 15.2536 363.641 14.1375 361.286L17.9661 358.975C18.7036 360.28 19.3732 361.386 20.9911 361.386C22.5304 361.386 23.5125 360.782 23.5125 358.429V342.457H28.2107V358.495ZM39.325 365.582C34.9607 365.582 32.1375 363.507 30.7643 360.782L34.5929 358.573C35.5982 360.214 36.9143 361.43 39.225 361.43C41.1661 361.43 42.4179 360.459 42.4179 359.109C42.4179 357.502 41.1446 356.932 38.9911 355.984L37.8196 355.482C34.4268 354.043 32.1839 352.223 32.1839 348.395C32.1839 344.868 34.8732 342.189 39.0589 342.189C42.05 342.189 44.1929 343.227 45.7339 345.95L42.0732 348.295C41.2696 346.855 40.3982 346.286 39.0482 346.286C37.6768 346.286 36.8054 347.157 36.8054 348.295C36.8054 349.702 37.6768 350.27 39.6964 351.152L40.8679 351.654C44.8643 353.361 47.1071 355.114 47.1071 359.041C47.1071 363.261 43.7804 365.58 39.3268 365.58L39.325 365.582Z" fill="#6C63FF"/>
<path d="M85.7188 335.438H88.6719V347.402C88.6719 349.035 88.1602 350.332 87.1367 351.293C86.1211 352.254 84.7773 352.734 83.1055 352.734C81.3242 352.734 79.9492 352.285 78.9805 351.387C78.0117 350.488 77.5273 349.238 77.5273 347.637H80.4805C80.4805 348.543 80.7031 349.227 81.1484 349.688C81.6016 350.141 82.2539 350.367 83.1055 350.367C83.9023 350.367 84.5352 350.105 85.0039 349.582C85.4805 349.051 85.7188 348.32 85.7188 347.391V335.438ZM99.3711 352.5C99.2461 352.258 99.1367 351.863 99.043 351.316C98.1367 352.262 97.0273 352.734 95.7148 352.734C94.4414 352.734 93.4023 352.371 92.5977 351.645C91.793 350.918 91.3906 350.02 91.3906 348.949C91.3906 347.598 91.8906 346.562 92.8906 345.844C93.8984 345.117 95.3359 344.754 97.2031 344.754H98.9492V343.922C98.9492 343.266 98.7656 342.742 98.3984 342.352C98.0312 341.953 97.4727 341.754 96.7227 341.754C96.0742 341.754 95.543 341.918 95.1289 342.246C94.7148 342.566 94.5078 342.977 94.5078 343.477H91.6602C91.6602 342.781 91.8906 342.133 92.3516 341.531C92.8125 340.922 93.4375 340.445 94.2266 340.102C95.0234 339.758 95.9102 339.586 96.8867 339.586C98.3711 339.586 99.5547 339.961 100.438 340.711C101.32 341.453 101.773 342.5 101.797 343.852V349.57C101.797 350.711 101.957 351.621 102.277 352.301V352.5H99.3711ZM96.2422 350.449C96.8047 350.449 97.332 350.312 97.8242 350.039C98.3242 349.766 98.6992 349.398 98.9492 348.938V346.547H97.4141C96.3594 346.547 95.5664 346.73 95.0352 347.098C94.5039 347.465 94.2383 347.984 94.2383 348.656C94.2383 349.203 94.418 349.641 94.7773 349.969C95.1445 350.289 95.6328 350.449 96.2422 350.449ZM109.062 348.891L111.746 339.82H114.688L110.293 352.5H107.82L103.391 339.82H106.344L109.062 348.891ZM123.863 352.5C123.738 352.258 123.629 351.863 123.535 351.316C122.629 352.262 121.52 352.734 120.207 352.734C118.934 352.734 117.895 352.371 117.09 351.645C116.285 350.918 115.883 350.02 115.883 348.949C115.883 347.598 116.383 346.562 117.383 345.844C118.391 345.117 119.828 344.754 121.695 344.754H123.441V343.922C123.441 343.266 123.258 342.742 122.891 342.352C122.523 341.953 121.965 341.754 121.215 341.754C120.566 341.754 120.035 341.918 119.621 342.246C119.207 342.566 119 342.977 119 343.477H116.152C116.152 342.781 116.383 342.133 116.844 341.531C117.305 340.922 117.93 340.445 118.719 340.102C119.516 339.758 120.402 339.586 121.379 339.586C122.863 339.586 124.047 339.961 124.93 340.711C125.812 341.453 126.266 342.5 126.289 343.852V349.57C126.289 350.711 126.449 351.621 126.77 352.301V352.5H123.863ZM120.734 350.449C121.297 350.449 121.824 350.312 122.316 350.039C122.816 349.766 123.191 349.398 123.441 348.938V346.547H121.906C120.852 346.547 120.059 346.73 119.527 347.098C118.996 347.465 118.73 347.984 118.73 348.656C118.73 349.203 118.91 349.641 119.27 349.969C119.637 350.289 120.125 350.449 120.734 350.449ZM136.379 349.055C136.379 348.547 136.168 348.16 135.746 347.895C135.332 347.629 134.641 347.395 133.672 347.191C132.703 346.988 131.895 346.73 131.246 346.418C129.824 345.73 129.113 344.734 129.113 343.43C129.113 342.336 129.574 341.422 130.496 340.688C131.418 339.953 132.59 339.586 134.012 339.586C135.527 339.586 136.75 339.961 137.68 340.711C138.617 341.461 139.086 342.434 139.086 343.629H136.238C136.238 343.082 136.035 342.629 135.629 342.27C135.223 341.902 134.684 341.719 134.012 341.719C133.387 341.719 132.875 341.863 132.477 342.152C132.086 342.441 131.891 342.828 131.891 343.312C131.891 343.75 132.074 344.09 132.441 344.332C132.809 344.574 133.551 344.82 134.668 345.07C135.785 345.312 136.66 345.605 137.293 345.949C137.934 346.285 138.406 346.691 138.711 347.168C139.023 347.645 139.18 348.223 139.18 348.902C139.18 350.043 138.707 350.969 137.762 351.68C136.816 352.383 135.578 352.734 134.047 352.734C133.008 352.734 132.082 352.547 131.27 352.172C130.457 351.797 129.824 351.281 129.371 350.625C128.918 349.969 128.691 349.262 128.691 348.504H131.457C131.496 349.176 131.75 349.695 132.219 350.062C132.688 350.422 133.309 350.602 134.082 350.602C134.832 350.602 135.402 350.461 135.793 350.18C136.184 349.891 136.379 349.516 136.379 349.055ZM146.879 350.461C147.59 350.461 148.18 350.254 148.648 349.84C149.117 349.426 149.367 348.914 149.398 348.305H152.082C152.051 349.094 151.805 349.832 151.344 350.52C150.883 351.199 150.258 351.738 149.469 352.137C148.68 352.535 147.828 352.734 146.914 352.734C145.141 352.734 143.734 352.16 142.695 351.012C141.656 349.863 141.137 348.277 141.137 346.254V345.961C141.137 344.031 141.652 342.488 142.684 341.332C143.715 340.168 145.121 339.586 146.902 339.586C148.41 339.586 149.637 340.027 150.582 340.91C151.535 341.785 152.035 342.938 152.082 344.367H149.398C149.367 343.641 149.117 343.043 148.648 342.574C148.188 342.105 147.598 341.871 146.879 341.871C145.957 341.871 145.246 342.207 144.746 342.879C144.246 343.543 143.992 344.555 143.984 345.914V346.371C143.984 347.746 144.23 348.773 144.723 349.453C145.223 350.125 145.941 350.461 146.879 350.461ZM160.871 342.422C160.496 342.359 160.109 342.328 159.711 342.328C158.406 342.328 157.527 342.828 157.074 343.828V352.5H154.227V339.82H156.945L157.016 341.238C157.703 340.137 158.656 339.586 159.875 339.586C160.281 339.586 160.617 339.641 160.883 339.75L160.871 342.422ZM165.699 352.5H162.852V339.82H165.699V352.5ZM162.676 336.527C162.676 336.09 162.812 335.727 163.086 335.438C163.367 335.148 163.766 335.004 164.281 335.004C164.797 335.004 165.195 335.148 165.477 335.438C165.758 335.727 165.898 336.09 165.898 336.527C165.898 336.957 165.758 337.316 165.477 337.605C165.195 337.887 164.797 338.027 164.281 338.027C163.766 338.027 163.367 337.887 163.086 337.605C162.812 337.316 162.676 336.957 162.676 336.527ZM179.914 346.289C179.914 348.25 179.469 349.816 178.578 350.988C177.688 352.152 176.492 352.734 174.992 352.734C173.602 352.734 172.488 352.277 171.652 351.363V357.375H168.805V339.82H171.43L171.547 341.109C172.383 340.094 173.52 339.586 174.957 339.586C176.504 339.586 177.715 340.164 178.59 341.32C179.473 342.469 179.914 344.066 179.914 346.113V346.289ZM177.078 346.043C177.078 344.777 176.824 343.773 176.316 343.031C175.816 342.289 175.098 341.918 174.16 341.918C172.996 341.918 172.16 342.398 171.652 343.359V348.984C172.168 349.969 173.012 350.461 174.184 350.461C175.09 350.461 175.797 350.098 176.305 349.371C176.82 348.637 177.078 347.527 177.078 346.043ZM185.902 336.738V339.82H188.141V341.93H185.902V349.008C185.902 349.492 185.996 349.844 186.184 350.062C186.379 350.273 186.723 350.379 187.215 350.379C187.543 350.379 187.875 350.34 188.211 350.262V352.465C187.562 352.645 186.938 352.734 186.336 352.734C184.148 352.734 183.055 351.527 183.055 349.113V341.93H180.969V339.82H183.055V336.738H185.902Z" fill="#6C63FF"/>
<path d="M504.633 337.02L497.812 352.5H494.824L501.633 337.723H492.809V335.438H504.633V337.02ZM507.68 344.039L508.605 335.438H517.77V337.898H510.973L510.504 341.977C511.293 341.523 512.184 341.297 513.176 341.297C514.801 341.297 516.062 341.816 516.961 342.855C517.867 343.895 518.32 345.293 518.32 347.051C518.32 348.785 517.82 350.168 516.82 351.199C515.82 352.223 514.449 352.734 512.707 352.734C511.145 352.734 509.848 352.293 508.816 351.41C507.793 350.52 507.238 349.348 507.152 347.895H509.906C510.016 348.723 510.312 349.359 510.797 349.805C511.281 350.242 511.914 350.461 512.695 350.461C513.57 350.461 514.25 350.148 514.734 349.523C515.227 348.898 515.473 348.047 515.473 346.969C515.473 345.93 515.203 345.109 514.664 344.508C514.125 343.898 513.383 343.594 512.438 343.594C511.922 343.594 511.484 343.664 511.125 343.805C510.766 343.938 510.375 344.203 509.953 344.602L507.68 344.039ZM520.441 338.719C520.441 337.688 520.773 336.844 521.438 336.188C522.102 335.523 522.973 335.191 524.051 335.191C525.145 335.191 526.02 335.523 526.676 336.188C527.34 336.844 527.672 337.707 527.672 338.777V339.621C527.672 340.645 527.34 341.484 526.676 342.141C526.02 342.797 525.152 343.125 524.074 343.125C523.02 343.125 522.148 342.805 521.461 342.164C520.781 341.516 520.441 340.645 520.441 339.551V338.719ZM522.434 339.621C522.434 340.16 522.582 340.598 522.879 340.934C523.184 341.262 523.582 341.426 524.074 341.426C524.559 341.426 524.949 341.262 525.246 340.934C525.543 340.598 525.691 340.145 525.691 339.574V338.719C525.691 338.18 525.539 337.742 525.234 337.406C524.938 337.07 524.543 336.902 524.051 336.902C523.559 336.902 523.164 337.074 522.867 337.418C522.578 337.754 522.434 338.199 522.434 338.754V339.621ZM528.645 348.316C528.645 347.27 528.984 346.422 529.664 345.773C530.344 345.125 531.211 344.801 532.266 344.801C533.328 344.801 534.195 345.125 534.867 345.773C535.547 346.422 535.887 347.297 535.887 348.398V349.23C535.887 350.246 535.559 351.086 534.902 351.75C534.254 352.406 533.383 352.734 532.289 352.734C531.195 352.734 530.312 352.41 529.641 351.762C528.977 351.105 528.645 350.242 528.645 349.172V348.316ZM530.637 349.23C530.637 349.762 530.789 350.199 531.094 350.543C531.406 350.879 531.805 351.047 532.289 351.047C532.789 351.047 533.18 350.887 533.461 350.566C533.75 350.238 533.895 349.781 533.895 349.195V348.316C533.895 347.77 533.742 347.332 533.438 347.004C533.133 346.676 532.742 346.512 532.266 346.512C531.781 346.512 531.387 346.676 531.082 347.004C530.785 347.332 530.637 347.785 530.637 348.363V349.23ZM524.66 351.223L523.195 350.379L531.527 337.043L532.992 337.887L524.66 351.223Z" fill="#6C63FF"/>
<line x1="1.01208" y1="395" x2="416.012" y2="396.002" stroke="#6C63FF" stroke-width="10"/>
<path d="M43.8398 491.706C43.3125 491.505 42.7852 491.315 42.2578 491.136C42.3457 490.723 42.4238 490.311 42.502 489.898C43.7031 483.246 42.9121 477.9 40.2461 476.137C37.6777 474.452 33.4883 476.204 29.25 480.423C28.8301 480.836 28.4199 481.271 28.0293 481.706C27.7656 481.416 27.4922 481.126 27.2188 480.847C22.7754 476.338 18.3223 474.441 15.6563 476.215C13.0977 477.912 12.3359 482.945 13.4102 489.239C13.5176 489.864 13.6348 490.478 13.7715 491.103C13.1465 491.304 12.5312 491.527 11.9551 491.761C6.74023 493.826 3 497.085 3 500.455C3 503.937 6.98438 507.43 12.4043 509.551C12.8438 509.718 13.2832 509.885 13.7324 510.03C13.5859 510.7 13.459 511.359 13.3418 512.039C12.3164 518.233 13.1172 523.144 15.6758 524.829C18.3125 526.57 22.7461 524.784 27.0625 520.465C27.4043 520.119 27.7461 519.762 28.0879 519.383C28.5176 519.863 28.9668 520.32 29.416 520.766C33.5957 524.873 37.7266 526.536 40.2754 524.851C42.9121 523.11 43.7715 517.831 42.6582 511.403C42.5703 510.912 42.4727 510.41 42.3652 509.897C42.6777 509.796 42.9805 509.684 43.2832 509.573C48.918 507.441 53 503.993 53 500.455C53 497.074 49.1523 493.792 43.8398 491.706ZM30.627 482.231C34.2598 478.615 37.6484 477.197 39.1914 478.213C40.8418 479.295 41.4766 483.67 40.4414 489.418C40.373 489.797 40.3047 490.165 40.2168 490.534C38.0488 489.976 35.8516 489.574 33.6445 489.351C32.375 487.275 30.9883 485.288 29.4844 483.425C29.8652 483.012 30.2363 482.621 30.627 482.231ZM19.3281 506.247C19.8262 507.218 20.334 508.189 20.8711 509.138C19.3477 508.948 17.834 508.669 16.3398 508.301C16.7695 506.694 17.3066 505.031 17.9316 503.334C18.3809 504.316 18.8398 505.287 19.3281 506.247ZM16.3691 492.822C17.7754 492.464 19.2695 492.174 20.8223 491.951C20.3047 492.877 19.7969 493.826 19.3184 494.786C18.8398 495.734 18.3711 496.705 17.9316 497.687C17.3164 496.025 16.7988 494.395 16.3691 492.822ZM19.0449 500.511C19.6895 498.971 20.3926 497.464 21.1348 495.98C21.877 494.496 22.6777 493.056 23.5176 491.639C24.9824 491.516 26.4766 491.449 28 491.449C29.5234 491.449 31.0273 491.516 32.4824 491.639C33.3125 493.045 34.1035 494.484 34.8555 495.958C35.6074 497.431 36.3105 498.937 36.9746 500.466C36.3203 502.006 35.6172 503.524 34.8652 505.02C34.123 506.504 33.332 507.944 32.502 509.372C31.0469 509.495 29.5332 509.551 28 509.551C26.4668 509.551 24.9824 509.495 23.5469 509.394C22.6973 507.977 21.8965 506.526 21.1445 505.042C20.3926 503.558 19.6992 502.051 19.0449 500.511ZM36.6816 506.225C37.1797 505.243 37.6484 504.25 38.1074 503.245C38.7324 504.863 39.2793 506.504 39.7578 508.189C38.2441 508.58 36.7109 508.881 35.168 509.082C35.6953 508.144 36.1934 507.185 36.6816 506.225ZM38.0879 497.687C37.6289 496.705 37.1602 495.723 36.6719 494.763C36.1934 493.815 35.6953 492.877 35.1777 491.951C36.75 492.174 38.2539 492.476 39.6602 492.844C39.2109 494.496 38.6836 496.103 38.0879 497.687ZM28.0195 485.132C29.0449 486.404 30.0117 487.744 30.9102 489.128C28.9766 489.027 27.0332 489.027 25.0996 489.128C26.0566 487.688 27.043 486.349 28.0195 485.132ZM16.6914 478.291C18.332 477.197 21.9746 478.76 25.8125 482.644C26.0566 482.889 26.3008 483.157 26.5547 483.425C25.041 485.288 23.6445 487.275 22.3652 489.351C20.1582 489.574 17.9707 489.965 15.8027 490.511C15.6758 489.942 15.5684 489.362 15.4609 488.782C14.543 483.38 15.1484 479.307 16.6914 478.291ZM14.2988 507.709C13.8887 507.575 13.4883 507.43 13.0879 507.274C11.0078 506.526 8.64453 505.343 6.93555 503.792C5.94922 503.011 5.28516 501.805 5.09961 500.455C5.09961 498.413 8.18555 495.801 12.6387 494.027C13.1953 493.804 13.7617 493.603 14.3281 493.413C14.9922 495.835 15.793 498.212 16.7207 500.511C15.7832 502.843 14.9727 505.254 14.2988 507.709ZM25.6855 518.646C24.0742 520.331 22.209 521.67 20.1777 522.586C19.0938 523.177 17.8438 523.233 16.7305 522.731C15.1777 521.704 14.5332 517.764 15.4121 512.463C15.5195 511.838 15.6367 511.213 15.7734 510.6C17.9609 511.135 20.168 511.504 22.4043 511.693C23.6934 513.78 25.1094 515.778 26.623 517.653C26.3105 517.999 25.998 518.334 25.6855 518.646ZM28.0781 515.934C27.082 514.707 26.0859 513.345 25.1191 511.883C26.0566 511.928 27.0234 511.95 28 511.95C29.0059 511.95 29.9922 511.928 30.9688 511.872C30.0703 513.289 29.1035 514.64 28.0781 515.934ZM40.8418 519.282C40.7539 520.644 40.168 521.916 39.2305 522.775C37.6777 523.802 34.3672 522.463 30.793 518.959C30.3828 518.557 29.9727 518.122 29.5527 517.675C31.0469 515.789 32.4238 513.791 33.6738 511.693C35.9102 511.481 38.1367 511.091 40.334 510.521C40.4316 510.979 40.5195 511.437 40.5977 511.883C41.0762 514.294 41.1543 516.805 40.8418 519.282ZM42.6191 507.285C42.3457 507.386 42.0723 507.486 41.7891 507.575C41.1055 505.142 40.2656 502.765 39.2988 500.455C40.2363 498.178 41.0273 495.835 41.6914 493.435C42.1992 493.603 42.6875 493.781 43.1562 493.96C47.707 495.745 50.9004 498.402 50.9004 500.433C50.9004 502.62 47.4922 505.444 42.6191 507.285ZM28 505.611C30.4707 505.611 32.4727 503.323 32.4727 500.5C32.4727 497.676 30.4707 495.388 28 495.388C25.5293 495.388 23.5273 497.676 23.5273 500.5C23.5273 503.323 25.5293 505.611 28 505.611Z" fill="#6C63FF"/>
<path d="M82.0039 501.928H78.6992V508.502H75.7344V491.44H81.7344C83.7031 491.44 85.2227 491.881 86.293 492.764C87.3633 493.647 87.8984 494.924 87.8984 496.596C87.8984 497.737 87.6211 498.694 87.0664 499.467C86.5195 500.233 85.7539 500.823 84.7695 501.237L88.6016 508.35V508.502H85.4258L82.0039 501.928ZM78.6992 499.549H81.7461C82.7461 499.549 83.5273 499.299 84.0898 498.799C84.6523 498.292 84.9336 497.6 84.9336 496.725C84.9336 495.811 84.6719 495.104 84.1484 494.604C83.6328 494.104 82.8594 493.846 81.8281 493.831H78.6992V499.549ZM96.0195 508.737C94.2148 508.737 92.75 508.17 91.625 507.038C90.5078 505.897 89.9492 504.381 89.9492 502.491V502.139C89.9492 500.874 90.1914 499.745 90.6758 498.752C91.168 497.752 91.8555 496.975 92.7383 496.42C93.6211 495.866 94.6055 495.588 95.6914 495.588C97.418 495.588 98.75 496.139 99.6875 497.241C100.633 498.342 101.105 499.901 101.105 501.917V503.065H92.8203C92.9062 504.112 93.2539 504.94 93.8633 505.549C94.4805 506.159 95.2539 506.463 96.1836 506.463C97.4883 506.463 98.5508 505.936 99.3711 504.881L100.906 506.346C100.398 507.104 99.7188 507.694 98.8672 508.116C98.0234 508.53 97.0742 508.737 96.0195 508.737ZM95.6797 497.874C94.8984 497.874 94.2656 498.147 93.7812 498.694C93.3047 499.241 93 500.002 92.8672 500.979H98.293V500.768C98.2305 499.815 97.9766 499.096 97.5312 498.612C97.0859 498.12 96.4688 497.874 95.6797 497.874ZM110.902 508.502C110.777 508.26 110.668 507.866 110.574 507.319C109.668 508.264 108.559 508.737 107.246 508.737C105.973 508.737 104.934 508.374 104.129 507.647C103.324 506.92 102.922 506.022 102.922 504.952C102.922 503.6 103.422 502.565 104.422 501.846C105.43 501.12 106.867 500.756 108.734 500.756H110.48V499.924C110.48 499.268 110.297 498.745 109.93 498.354C109.562 497.956 109.004 497.756 108.254 497.756C107.605 497.756 107.074 497.92 106.66 498.249C106.246 498.569 106.039 498.979 106.039 499.479H103.191C103.191 498.784 103.422 498.135 103.883 497.534C104.344 496.924 104.969 496.448 105.758 496.104C106.555 495.76 107.441 495.588 108.418 495.588C109.902 495.588 111.086 495.963 111.969 496.713C112.852 497.456 113.305 498.502 113.328 499.854V505.573C113.328 506.713 113.488 507.624 113.809 508.303V508.502H110.902ZM107.773 506.452C108.336 506.452 108.863 506.315 109.355 506.042C109.855 505.768 110.23 505.401 110.48 504.94V502.549H108.945C107.891 502.549 107.098 502.733 106.566 503.1C106.035 503.467 105.77 503.987 105.77 504.659C105.77 505.206 105.949 505.643 106.309 505.971C106.676 506.292 107.164 506.452 107.773 506.452ZM121.52 506.463C122.23 506.463 122.82 506.256 123.289 505.842C123.758 505.428 124.008 504.917 124.039 504.307H126.723C126.691 505.096 126.445 505.834 125.984 506.522C125.523 507.202 124.898 507.741 124.109 508.139C123.32 508.538 122.469 508.737 121.555 508.737C119.781 508.737 118.375 508.163 117.336 507.014C116.297 505.866 115.777 504.28 115.777 502.256V501.963C115.777 500.034 116.293 498.491 117.324 497.334C118.355 496.17 119.762 495.588 121.543 495.588C123.051 495.588 124.277 496.03 125.223 496.913C126.176 497.788 126.676 498.94 126.723 500.37H124.039C124.008 499.643 123.758 499.045 123.289 498.577C122.828 498.108 122.238 497.874 121.52 497.874C120.598 497.874 119.887 498.209 119.387 498.881C118.887 499.545 118.633 500.557 118.625 501.917V502.374C118.625 503.749 118.871 504.776 119.363 505.456C119.863 506.127 120.582 506.463 121.52 506.463ZM132.441 492.741V495.823H134.68V497.932H132.441V505.01C132.441 505.495 132.535 505.846 132.723 506.065C132.918 506.276 133.262 506.381 133.754 506.381C134.082 506.381 134.414 506.342 134.75 506.264V508.467C134.102 508.647 133.477 508.737 132.875 508.737C130.688 508.737 129.594 507.53 129.594 505.116V497.932H127.508V495.823H129.594V492.741H132.441Z" fill="#6C63FF"/>
<path d="M502.633 493.022L495.812 508.502H492.824L499.633 493.725H490.809V491.44H502.633V493.022ZM516.039 501.319C516.039 503.772 515.578 505.624 514.656 506.874C513.742 508.116 512.348 508.737 510.473 508.737C508.629 508.737 507.238 508.131 506.301 506.92C505.371 505.702 504.895 503.901 504.871 501.518V498.565C504.871 496.112 505.328 494.272 506.242 493.045C507.164 491.819 508.566 491.206 510.449 491.206C512.316 491.206 513.707 491.803 514.621 492.999C515.543 494.194 516.016 495.983 516.039 498.366V501.319ZM513.191 498.131C513.191 496.53 512.973 495.358 512.535 494.616C512.098 493.866 511.402 493.491 510.449 493.491C509.52 493.491 508.836 493.846 508.398 494.557C507.961 495.26 507.73 496.362 507.707 497.862V501.729C507.707 503.323 507.93 504.51 508.375 505.292C508.82 506.073 509.52 506.463 510.473 506.463C511.387 506.463 512.062 506.104 512.5 505.385C512.938 504.659 513.168 503.526 513.191 501.987V498.131ZM518.441 494.721C518.441 493.69 518.773 492.846 519.438 492.19C520.102 491.526 520.973 491.194 522.051 491.194C523.145 491.194 524.02 491.526 524.676 492.19C525.34 492.846 525.672 493.709 525.672 494.78V495.624C525.672 496.647 525.34 497.487 524.676 498.143C524.02 498.799 523.152 499.127 522.074 499.127C521.02 499.127 520.148 498.807 519.461 498.167C518.781 497.518 518.441 496.647 518.441 495.553V494.721ZM520.434 495.624C520.434 496.163 520.582 496.6 520.879 496.936C521.184 497.264 521.582 497.428 522.074 497.428C522.559 497.428 522.949 497.264 523.246 496.936C523.543 496.6 523.691 496.147 523.691 495.577V494.721C523.691 494.182 523.539 493.745 523.234 493.409C522.938 493.073 522.543 492.905 522.051 492.905C521.559 492.905 521.164 493.077 520.867 493.42C520.578 493.756 520.434 494.202 520.434 494.756V495.624ZM526.645 504.319C526.645 503.272 526.984 502.424 527.664 501.776C528.344 501.127 529.211 500.803 530.266 500.803C531.328 500.803 532.195 501.127 532.867 501.776C533.547 502.424 533.887 503.299 533.887 504.401V505.233C533.887 506.249 533.559 507.088 532.902 507.752C532.254 508.409 531.383 508.737 530.289 508.737C529.195 508.737 528.312 508.413 527.641 507.764C526.977 507.108 526.645 506.245 526.645 505.174V504.319ZM528.637 505.233C528.637 505.764 528.789 506.202 529.094 506.545C529.406 506.881 529.805 507.049 530.289 507.049C530.789 507.049 531.18 506.889 531.461 506.569C531.75 506.241 531.895 505.784 531.895 505.198V504.319C531.895 503.772 531.742 503.334 531.438 503.006C531.133 502.678 530.742 502.514 530.266 502.514C529.781 502.514 529.387 502.678 529.082 503.006C528.785 503.334 528.637 503.788 528.637 504.366V505.233ZM522.66 507.225L521.195 506.381L529.527 493.045L530.992 493.889L522.66 507.225Z" fill="#6C63FF"/>
<line x1="0.986487" y1="551.997" x2="368.987" y2="551.003" stroke="#6C63FF" stroke-width="10"/>
</svg>
